<?xml version="1.0" encoding="utf-8"?>
<!-- Generator: Adobe Illustrator 16.0.4, SVG Export Plug-In . SVG Version: 6.00 Build 0)  -->
<!DOCTYPE svg PUBLIC "-//W3C//DTD SVG 1.1//EN" "http://www.w3.org/Graphics/SVG/1.1/DTD/svg11.dtd">
<svg version="1.1" xmlns="http://www.w3.org/2000/svg" xmlns:xlink="http://www.w3.org/1999/xlink" x="0px" y="0px"
	 width="128.626px" height="90.517px" viewBox="0 0 128.626 90.517" enable-background="new 0 0 128.626 90.517"
	 xml:space="preserve">
<g id="Calque_2" display="none">
	<g id="Your_Icon" display="inline">
		<g>
			<g id="Page_1_2_">
				<path id="Bird" d="M27.346,49.344L5.435,61.05c-2.572,1.679-2.227,2.97-1.427,2.946l0,0c0,0,15.723-8.071,17.463-8.576
					c1.49,0.494,3.865,0.292,3.865,0.292L24.4,56.631c-1.665,1.634-1.282,2.322,0.854,1.54l0.969-0.354c0,0-0.651,1.364,0.791,0.89
					c1.49-0.337,5.284-3.133,7.915-3.491l2.451,8.92c0.107,0.383-0.019,0.937-0.271,1.223c0,0-0.323,1.636-1.304,2.535
					c-0.982,0.899-0.284,1.141-0.284,1.141s0.978,1.197,1.289,0.812c0.313-0.384-0.352-1.461-0.251-2.097
					c0.1-0.636,0.833-1.127,0.833-1.127l1.338-0.587c0,0,1.069-0.848,1.799-1.518c-1.333-0.577-2.038-0.776-2.038-0.776
					s-2.382-6.698-2.391-8.135c4.544,1.111,3.215,0.765,5.043,1.032c4.733,3.867,6.386,7.629,6.386,7.629l0,0
					c0,0,0.746,0.949,1.5,1.125c0.844-0.179,0,0,0,0l0,0c0.254-2.479,0,0,0,0l0.664-0.282c-0.664,0.282-1.048-0.729-2.164-0.843
					l1.825,0.057l-6.778-7.537c0,0,17.44-0.531,19.522-19.04c-1.802-11.728,1.018-12.068,2.041-13.029
					c2.279-1.073,2.771-1.219,4.049-2.019c-1.49,0.262-0.498,0.047-5.289,0.957c0.968-1.208,4.044-5.122,4.044-5.122
					s-2.029,0.947-4.891,2.423c-2.634-2.038-14.991-3.572-15.39,13.09C46.637,34.367,29.077,46.573,27.346,49.344z"/>
				<path id="branch" display="none" d="M68.273,63.84l-14.392-0.423l-14.527,2.368l-15.283,2.491c0,0-11.274,5.601-13.841,7.393
					c-1.673,3.784,2.27,2.576,2.27,2.576l13.151-6.948c0,0,21.086-3.334,25.139-3.685c7.214-1.894,15.768-1.291,17.54-1.202
					C70.785,64.744,68.273,63.84,68.273,63.84z"/>
			</g>
		</g>
	</g>
</g>
<g id="Calque_5">
	<g>
		<path d="M21.237,65.571l-17.602,7.38l17.926,7.343v1.836c-6.624-2.664-12.814-5.867-19.438-8.531v-1.403
			c6.299-2.592,12.814-5.939,19.114-8.531V65.571z"/>
		<path d="M50.397,79.429c0,1.26,0.036,1.656,0.036,2.088c-2.196,0.684-3.888,1.116-6.299,1.116c-6.479,0-9.719-3.132-9.719-10.043
			c0-7.307,3.671-9.683,9.719-9.683c2.412,0,4.463,0.756,5.939,1.584v1.907c-2.016-0.899-3.924-1.836-5.939-1.836
			c-3.779,0-7.307,1.26-7.307,7.955c0,6.983,3.384,8.459,7.307,8.459C46.618,80.977,48.993,80.114,50.397,79.429z"/>
		<path d="M75.452,70.178c0-3.348-0.432-5.543-3.348-5.543c-3.636,0-5.255,3.023-5.255,5.903v11.519h-2.448V70.539
			c0-3.779-0.684-5.903-3.275-5.903c-3.636,0-5.255,3.779-5.255,6.516v10.906h-2.376V63.448h2.124l0.216,3.959
			c0.972-2.915,3.204-4.535,6.371-4.535c2.052,0,3.456,1.332,4.319,4.535c1.044-2.375,3.168-4.535,6.695-4.535
			c3.023,0,4.427,2.231,4.427,7.559l0.108,11.627h-2.304V70.178z"/>
		<path d="M94.604,64.744c0,0.54,0.036,1.26,0.036,1.728c-2.34-1.008-4.5-1.908-6.947-1.908c-1.908,0-3.888,0.433-3.888,3.204
			c0,2.304,1.332,2.771,4.211,3.527c5.076,1.26,7.559,2.88,7.559,5.795c0,3.456-2.987,5.508-7.379,5.508
			c-3.744,0-6.479-1.476-7.379-2.088c0-0.828,0.036-1.512,0.036-2.34c2.196,1.296,4.644,2.628,7.343,2.628
			c2.556,0,4.859-0.72,4.859-3.708c0-2.447-3.096-3.275-6.695-4.247c-3.959-1.152-5.111-2.664-5.111-5.147
			c0-1.728,1.08-4.644,6.443-4.644C90.969,63.051,93.272,64.167,94.604,64.744z"/>
		<path d="M108.429,63.664c6.299,2.592,12.814,5.939,19.113,8.531v1.403c-6.623,2.664-12.814,5.867-19.437,8.531v-1.836
			l17.925-7.343l-17.602-7.38V63.664z"/>
	</g>
</g>
<g id="Calque_3">
	<g id="Your_Icon_2_">
		<path d="M39.813,5.672c0,0-0.665,3.597,4.152,3.769c0,0-0.166,4.966,4.819,4.625c0,0-0.333,3.425,3.157,1.712
			c0,0-1.162,3.425,1.332,3.254c0,0,3.157,6.852,6.147,7.023c0,0-5.484,15.671-7.394,17.129c0,0-0.333,1.2-2.41,1.2
			c0,0-1.413,6.767-0.082,7.708c0,0,2.824,0.258,5.233-0.514c0,0,2.66-6.51,5.234-7.709c0,0,2.16-1.797,3.738-3.511
			c0,0,16.533-2.483,17.863-18.329c0,0,1.413-8.649,4.652-9.763c0,0,2.825-1.456,11.216,0.856c0,0,0.997,0.256,0.997-0.943
			c0,0-6.812-2.912-10.635-2.569c0,0-4.985-7.195-10.967-4.112c0,0-4.32,1.028-4.32,7.708c0,0-1.495,0.515-1.495,2.57
			c0,0-25.091-19.699-32.402-15.074C38.649,0.703,36.323,4.814,39.813,5.672z M85.999,10.092c5.332,0.222,12.395,2.349,12.395,2.349
			C94.335,11.838,85.999,10.092,85.999,10.092z M79.066,9.36c1.031-1.973,3.19-1.109,3.19-1.109
			C79.84,8.246,79.066,9.361,79.066,9.36z"/>
	</g>
	<g>
	</g>
	<g>
	</g>
	<g>
	</g>
	<g>
	</g>
	<g>
	</g>
	<g>
	</g>
	<g>
	</g>
	<g>
	</g>
	<g>
	</g>
	<g>
	</g>
	<g>
	</g>
	<g>
	</g>
	<g>
	</g>
	<g>
	</g>
	<g>
	</g>
</g>
</svg>
